<svg width="28" height="28" viewBox="0 0 28 28" fill="none" xmlns="http://www.w3.org/2000/svg">
<path d="M24.0187 13.2213L4.76874 3.59626C4.61786 3.5208 4.44839 3.49057 4.28073 3.5092C4.11307 3.52783 3.95437 3.59452 3.82374 3.70126C3.69899 3.80581 3.60587 3.94309 3.55486 4.09767C3.50385 4.25224 3.49697 4.41798 3.53499 4.57626L6.12499 14L3.49999 23.3975C3.46431 23.5297 3.46015 23.6684 3.48783 23.8025C3.51551 23.9365 3.57427 24.0622 3.65938 24.1695C3.74449 24.2767 3.85357 24.3625 3.97786 24.4199C4.10214 24.4773 4.23817 24.5047 4.37499 24.5C4.51197 24.4992 4.64683 24.4662 4.76874 24.4038L24.0187 14.7788C24.1621 14.7053 24.2824 14.5938 24.3663 14.4564C24.4503 14.319 24.4948 14.161 24.4948 14C24.4948 13.839 24.4503 13.681 24.3663 13.5436C24.2824 13.4062 24.1621 13.2947 24.0187 13.2213ZM5.73124 21.9713L7.66499 14.875H15.75V13.125H7.66499L5.73124 6.02876L21.665 14L5.73124 21.9713Z" fill="#0047FF"/>
</svg>
